<svg width="24" height="24" viewBox="0 0 24 24" fill="none" xmlns="http://www.w3.org/2000/svg">
<g id=" Outline / funnel">
<path id="Union" fill-rule="evenodd" clip-rule="evenodd" d="M10.877 17.457L12.903 18.99V14.437C12.903 14.271 12.945 14.108 13.023 13.962L17.323 6H6.643L10.765 13.978C10.839 14.12 10.877 14.278 10.877 14.437V17.457ZM13.903 22C13.69 22 13.477 21.932 13.3 21.797L9.274 18.752C9.024 18.563 8.877 18.268 8.877 17.955V14.681L4.112 5.459C3.951 5.149 3.964 4.778 4.146 4.48C4.327 4.182 4.651 4 5 4H19C19.352 4 19.678 4.185 19.859 4.488C20.039 4.79 20.047 5.165 19.88 5.475L14.903 14.69V21C14.903 21.379 14.689 21.726 14.349 21.895C14.208 21.965 14.055 22 13.903 22Z" fill="#92929D"/>
</g>
</svg>
