<svg width="32" height="32" viewBox="0 0 32 32" fill="none" xmlns="http://www.w3.org/2000/svg">
<g filter="url(#filter0_d_111_2630)">
<path d="M5.00003 23.56C5.00003 24.3556 5.65001 25 6.45084 25H6.47169C5.6586 25 5.00003 24.3556 5.00003 23.56Z" fill="#FBBC05"/>
<path d="M17.4675 12.4V16.1596L22.5361 12.0712V8.43999C22.5361 7.6444 21.8861 7 21.0853 7H10.1042L10.0944 12.4H17.4675Z" fill="#FBBC05"/>
<path d="M17.4675 19.9207H10.0822L10.0736 25.0003H21.0853C21.8873 25.0003 22.5361 24.3559 22.5361 23.5603V20.2819L17.4675 16.1611V19.9207V19.9207Z" fill="#34A853"/>
<path d="M10.1042 7L5 12.4H10.0956L10.1042 7Z" fill="#EA4335"/>
<path d="M5.00003 19.9204V23.56C5.00003 24.3556 5.6586 25 6.47169 25H10.0736L10.0822 19.9204H5.00003V19.9204Z" fill="#1967D2"/>
<path d="M10.0957 12.4H5.00003V19.9203H10.0822L10.0957 12.4Z" fill="#4285F4"/>
<path d="M26.9928 22.2799V9.91994C26.7071 8.27955 24.908 10.1599 24.908 10.1599L22.5374 12.0715V20.2807L25.9308 23.0395C27.1559 23.2003 26.9928 22.2799 26.9928 22.2799Z" fill="#34A853"/>
<path d="M17.4674 16.1596L22.5373 20.2815V12.0724L17.4674 16.1596Z" fill="#188038"/>
</g>
<defs>
<filter id="filter0_d_111_2630" x="-2" y="-1" width="36" height="36" filterUnits="userSpaceOnUse" color-interpolation-filters="sRGB">
<feFlood flood-opacity="0" result="BackgroundImageFix"/>
<feColorMatrix in="SourceAlpha" type="matrix" values="0 0 0 0 0 0 0 0 0 0 0 0 0 0 0 0 0 0 127 0" result="hardAlpha"/>
<feOffset dy="1"/>
<feGaussianBlur stdDeviation="1"/>
<feColorMatrix type="matrix" values="0 0 0 0 0.0627451 0 0 0 0 0.0941176 0 0 0 0 0.156863 0 0 0 0.05 0"/>
<feBlend mode="normal" in2="BackgroundImageFix" result="effect1_dropShadow_111_2630"/>
<feBlend mode="normal" in="SourceGraphic" in2="effect1_dropShadow_111_2630" result="shape"/>
</filter>
</defs>
</svg>
