<svg width="49" height="49" viewBox="0 0 49 49" fill="none" xmlns="http://www.w3.org/2000/svg">
<path d="M0 6.40964C0 2.86969 2.86969 0 6.40964 0H41.6626C45.2026 0 48.0723 2.86969 48.0723 6.40964V41.6626C48.0723 45.2026 45.2026 48.0723 41.6626 48.0723H6.40964C2.86969 48.0723 0 45.2026 0 41.6626V6.40964Z" fill="#3080E3"/>
<path d="M26.8828 25.429C26.8828 22.5414 29.2237 20.2005 32.1113 20.2005C34.999 20.2005 37.3398 22.5414 37.3398 25.429V26.722C37.3398 29.6096 34.999 31.9505 32.1113 31.9505C29.2237 31.9505 26.8828 29.6096 26.8828 26.722V25.429Z" fill="#FCFBF9"/>
<path fill-rule="evenodd" clip-rule="evenodd" d="M22.8303 26.2483V9.5733H24.4785V9.09811H10.7326V9.5733H12.3733V27.8139C12.3095 33.353 15.9256 42.9804 30.9013 37.1764C25.9804 37.1764 22.8303 35.2611 22.8303 26.2483Z" fill="#FCFBF9"/>
</svg>
