<svg width="45" height="37" viewBox="0 0 45 37" fill="none" xmlns="http://www.w3.org/2000/svg">
<g id=" Outline / refresh">
<path id="Verctor" fill-rule="evenodd" clip-rule="evenodd" d="M37.5181 20.4168C36.5461 20.1628 35.5076 20.6053 35.1972 21.4052C33.4657 25.8852 28.3692 28.8932 22.5151 28.8932C15.1937 28.8932 9.23982 24.1182 9.23982 18.2482C9.23982 12.3798 15.1937 7.60325 22.5151 7.60325C25.7082 7.60325 28.7203 8.51872 31.0985 10.1428L27.096 9.59994C26.0797 9.44787 25.1372 10.0242 24.9709 10.8515C24.8046 11.6803 25.4865 12.4634 26.4936 12.5988L34.3397 13.6663C34.4414 13.68 34.5448 13.6861 34.6428 13.6861C34.8627 13.6861 35.077 13.6542 35.2766 13.5933C35.345 13.572 35.4004 13.5325 35.4669 13.5036C35.5889 13.4519 35.7164 13.4063 35.8217 13.3333C35.8883 13.2892 35.9308 13.2253 35.988 13.1736C36.0749 13.0991 36.1673 13.0276 36.232 12.9364C36.2782 12.871 36.2966 12.7934 36.3318 12.7204C36.3761 12.6307 36.4352 12.5471 36.4574 12.4482L37.8507 6.36539C38.0392 5.53965 37.3795 4.74279 36.3761 4.5892C35.3764 4.44017 34.4063 4.97698 34.2178 5.80121L33.7151 7.99255C30.6403 5.80121 26.6987 4.56183 22.5151 4.56183C13.1573 4.56183 5.54404 10.7009 5.54404 18.2482C5.54404 25.7955 13.1573 31.9346 22.5151 31.9346C29.9842 31.9346 36.4962 28.0735 38.7192 22.3268C39.0278 21.5269 38.4901 20.6722 37.5181 20.4168Z" fill="#92929D"/>
</g>
</svg>
