<svg width="20" height="20" viewBox="0 0 20 20" fill="none" xmlns="http://www.w3.org/2000/svg">
<path fill-rule="evenodd" clip-rule="evenodd" d="M6.54759 0.872986H14.2857C16.039 0.872986 17.4603 2.2943 17.4603 4.04759V16.8432C17.4603 17.7199 16.7496 18.4305 15.873 18.4305C15.5125 18.4305 15.1628 18.3078 14.8813 18.0826L10.4166 14.5104L5.95195 18.0826C5.26744 18.6303 4.26855 18.5194 3.72088 17.8349C3.49568 17.5534 3.37299 17.2037 3.37299 16.8432V4.04759C3.37299 2.2943 4.7943 0.872986 6.54759 0.872986ZM6.54759 2.46029C5.67095 2.46029 4.96029 3.17095 4.96029 4.04759V16.8432L9.42498 13.271C10.0047 12.8072 10.8286 12.8072 11.4083 13.271L15.873 16.8432V4.04759C15.873 3.17095 15.1623 2.46029 14.2857 2.46029H6.54759Z" fill="#92929D"/>
</svg>
